<svg width="176" height="48" xmlns="http://www.w3.org/2000/svg" xmlns:xlink="http://www.w3.org/1999/xlink"><defs><path id="a" d="M.053.59H24.57V39H.053z"/><path id="c" d="M0 .378h30.535v29.187H0z"/></defs><g fill="none" fill-rule="evenodd"><path d="M135.577 17.164a12.97 12.97 0 0 0-11.664-7.281c-7.155 0-12.956 5.789-12.956 12.923 0 7.136 5.801 12.92 12.956 12.92 5.13 0 9.562-2.968 11.664-7.278l1.828-.042a14.62 14.62 0 0 1-13.492 8.967c-8.065 0-14.607-6.523-14.607-14.567 0-8.046 6.542-14.568 14.607-14.568a14.616 14.616 0 0 1 13.462 8.896l-1.798.03zM93.853 9.883c-7.155 0-12.956 5.789-12.956 12.923 0 7.136 5.8 12.92 12.956 12.92 7.157 0 12.959-5.784 12.959-12.92 0-7.134-5.802-12.923-12.96-12.923m0-1.646a14.6 14.6 0 0 1 12.971 7.872V8.977h1.649v28.475h-1.648v-7.95a14.607 14.607 0 0 1-12.971 7.87c-8.066 0-14.607-6.522-14.607-14.566 0-8.046 6.54-14.57 14.607-14.57M67.087 8.336A10.86 10.86 0 0 0 57 15.156a10.868 10.868 0 0 0-10.09-6.82 10.855 10.855 0 0 0-9.264 5.191v-4.55H36v28.476h1.647V18.198c.488-4.67 4.45-8.316 9.264-8.316a9.306 9.306 0 0 1 9.267 8.425v19.146h1.645V18.306a9.303 9.303 0 0 1 9.264-8.424A9.302 9.302 0 0 1 76.38 18.7h-.027v18.753H78V18.698h-.067c-.254-5.765-5.006-10.363-10.847-10.363" fill="#221E1F"/><g transform="translate(136 8.395)"><mask id="b" fill="#fff"><use xlink:href="#a"/></mask><path fill="#221E1F" mask="url(#b)" d="M22.7.59L12.187 26.433 1.783.59H.053l11.244 28.04L7.078 39h1.83L24.57.59z"/></g><path d="M174.88 14.934c0-1.697-.7-3.333-1.975-4.604-1.37-1.367-3.24-2.15-5.137-2.15-3.733 0-6.772 3.031-6.772 6.754 0 3.618 1.727 5.566 6.385 7.191 4.856 1.822 7.026 3.996 7.026 7.044 0 3.804-3.1 6.898-6.912 6.898-1.807 0-3.538-.745-4.865-2.087-1.478-1.496-2.335-3.619-2.45-6.038l-1.51.003c.12 2.82 1.126 5.316 2.884 7.09 1.615 1.637 3.723 2.536 5.94 2.536a8.38 8.38 0 0 0 5.953-2.46 8.325 8.325 0 0 0 2.3-4.25V27.6c-.857-3.822-4.8-5.745-7.85-6.889-4.036-1.406-5.39-2.862-5.39-5.776 0-1.4.547-2.719 1.54-3.71a5.226 5.226 0 0 1 3.72-1.536c1.497 0 2.983.621 4.07 1.705.994.99 1.536 2.246 1.536 3.541h1.508zM159.623 2.521h2.68L163.125 0l.821 2.521h2.673l-2.164 1.565.828 2.533-2.165-1.569-2.149 1.563.825-2.524z" fill="#221E1F"/><g transform="translate(0 7.395)"><mask id="d" fill="#fff"><use xlink:href="#c"/></mask><path fill="#DF2437" mask="url(#d)" d="M30.535 12.3H19.22L15.19.377 11.209 12.3H-.001l8.908 6.32-3.465 10.946 9.83-6.295 9.767 6.244-3.474-10.945z"/></g></g></svg>